<svg width="87" height="24" viewBox="0 0 87 24" fill="none" xmlns="http://www.w3.org/2000/svg">
<path d="M-1.43955e-06 23.2766V0.162774H2.92992V20.6722H15.8216V23.2766H-1.43955e-06ZM27.6878 23.4394C26.06 23.4394 24.5842 23.1138 23.2603 22.4627C21.9364 21.8116 20.7862 20.9327 19.8095 19.8258C18.8546 18.6973 18.1167 17.4385 17.5958 16.0495C17.0749 14.6388 16.8145 13.1955 16.8145 11.7197C16.8145 10.1788 17.0858 8.71381 17.6284 7.32481C18.1926 5.9141 18.9631 4.66617 19.9398 3.58102C20.9381 2.47416 22.0992 1.60603 23.4231 0.976641C24.747 0.325547 26.1903 4.96469e-07 27.7529 4.96469e-07C29.3806 4.96469e-07 30.8564 0.336399 32.1803 1.0092C33.5042 1.68199 34.6436 2.58267 35.5986 3.71124C36.5535 4.8398 37.2914 6.09858 37.8123 7.48758C38.3332 8.87658 38.5936 10.2981 38.5936 11.7522C38.5936 13.2932 38.3223 14.769 37.7797 16.1797C37.2371 17.5687 36.4667 18.8166 35.4683 19.9235C34.4917 21.0086 33.3414 21.8659 32.0175 22.4953C30.6937 23.1247 29.2504 23.4394 27.6878 23.4394ZM19.777 11.7197C19.777 12.8917 19.9615 14.0311 20.3304 15.1379C20.7211 16.2231 21.2636 17.1889 21.9581 18.0353C22.6526 18.8817 23.4882 19.5545 24.4649 20.0537C25.4415 20.5529 26.5267 20.8025 27.7203 20.8025C28.9574 20.8025 30.0643 20.542 31.0409 20.0211C32.0175 19.5003 32.8423 18.8058 33.5151 17.9376C34.2096 17.0695 34.7304 16.0929 35.0777 15.0077C35.4466 13.9226 35.6311 12.8266 35.6311 11.7197C35.6311 10.5477 35.4358 9.41916 35.0451 8.334C34.6762 7.24885 34.1336 6.28306 33.4174 5.43664C32.7229 4.56851 31.8873 3.89571 30.9107 3.41824C29.9557 2.91907 28.8923 2.66949 27.7203 2.66949C26.4832 2.66949 25.3764 2.92992 24.3997 3.4508C23.4231 3.94997 22.5875 4.63362 21.893 5.50175C21.2202 6.36987 20.6994 7.34651 20.3304 8.43167C19.9615 9.49512 19.777 10.5911 19.777 11.7197ZM51.9425 23.4394C50.4233 23.4394 49.0018 23.1138 47.6779 22.4627C46.3757 21.7899 45.2363 20.9001 44.2596 19.7933C43.283 18.6647 42.5234 17.4059 41.9808 16.0169C41.4382 14.6062 41.1669 13.1521 41.1669 11.6546C41.1669 10.092 41.4382 8.61614 41.9808 7.22714C42.5234 5.81644 43.2721 4.56851 44.2271 3.48335C45.2037 2.3982 46.3431 1.55177 47.6453 0.944086C48.9692 0.314696 50.4016 4.96469e-07 51.9425 4.96469e-07C54.178 4.96469e-07 56.0227 0.466618 57.4768 1.39985C58.931 2.33309 60.027 3.54846 60.7649 5.04598L58.5186 6.6086C57.8458 5.26301 56.9234 4.26467 55.7514 3.61357C54.5795 2.96248 53.2881 2.63693 51.8774 2.63693C50.7055 2.63693 49.642 2.88652 48.6871 3.38569C47.7321 3.88486 46.9074 4.56851 46.2129 5.43664C45.5401 6.28306 45.0192 7.24885 44.6503 8.334C44.303 9.41916 44.1294 10.5477 44.1294 11.7197C44.1294 12.9568 44.3247 14.1287 44.7154 15.2356C45.1278 16.3208 45.7029 17.2865 46.4408 18.133C47.1787 18.9577 48.036 19.6088 49.0126 20.0863C49.9893 20.5637 51.0419 20.8025 52.1704 20.8025C53.4943 20.8025 54.7531 20.4661 55.9468 19.7933C57.1404 19.1205 58.269 18.0896 59.3325 16.7006V19.7281C57.249 22.2023 54.7857 23.4394 51.9425 23.4394ZM58.9744 13.966H53.9935V11.7522H61.4485V23.2766H58.9744V13.966ZM75.2799 23.4394C73.6522 23.4394 72.1764 23.1138 70.8525 22.4627C69.5286 21.8116 68.3783 20.9327 67.4017 19.8258C66.4468 18.6973 65.7089 17.4385 65.188 16.0495C64.6671 14.6388 64.4067 13.1955 64.4067 11.7197C64.4067 10.1788 64.678 8.71381 65.2205 7.32481C65.7848 5.9141 66.5553 4.66617 67.5319 3.58102C68.5303 2.47416 69.6914 1.60603 71.0153 0.976641C72.3392 0.325547 73.7824 4.96469e-07 75.3451 4.96469e-07C76.9728 4.96469e-07 78.4486 0.336399 79.7725 1.0092C81.0964 1.68199 82.2358 2.58267 83.1907 3.71124C84.1457 4.8398 84.8836 6.09858 85.4045 7.48758C85.9253 8.87658 86.1858 10.2981 86.1858 11.7522C86.1858 13.2932 85.9145 14.769 85.3719 16.1797C84.8293 17.5687 84.0589 18.8166 83.0605 19.9235C82.0839 21.0086 80.9336 21.8659 79.6097 22.4953C78.2858 23.1247 76.8426 23.4394 75.2799 23.4394ZM67.3692 11.7197C67.3692 12.8917 67.5536 14.0311 67.9226 15.1379C68.3132 16.2231 68.8558 17.1889 69.5503 18.0353C70.2448 18.8817 71.0804 19.5545 72.057 20.0537C73.0337 20.5529 74.1188 20.8025 75.3125 20.8025C76.5496 20.8025 77.6564 20.542 78.6331 20.0211C79.6097 19.5003 80.4344 18.8058 81.1072 17.9376C81.8017 17.0695 82.3226 16.0929 82.6699 15.0077C83.0388 13.9226 83.2233 12.8266 83.2233 11.7197C83.2233 10.5477 83.028 9.41916 82.6373 8.334C82.2684 7.24885 81.7258 6.28306 81.0096 5.43664C80.3151 4.56851 79.4795 3.89571 78.5029 3.41824C77.5479 2.91907 76.4845 2.66949 75.3125 2.66949C74.0754 2.66949 72.9686 2.92992 71.9919 3.4508C71.0153 3.94997 70.1797 4.63362 69.4852 5.50175C68.8124 6.36987 68.2915 7.34651 67.9226 8.43167C67.5536 9.49512 67.3692 10.5911 67.3692 11.7197Z" fill="#4C4D4C"/>
</svg>
